<mxfile host="app.diagrams.net" modified="2024-06-25T15:19:03.507Z" agent="Mozilla/5.0 (X11; Linux x86_64; rv:122.0) Gecko/20100101 Firefox/122.0" etag="qVY8TLa_9hPFgGDcq13z" version="24.6.2" type="device">
  <diagram name="Page-1" id="uEpYoFYUWC7yTzCAs0eU">
    <mxGraphModel dx="819" dy="439" grid="1" gridSize="10" guides="1" tooltips="1" connect="1" arrows="1" fold="1" page="1" pageScale="1" pageWidth="850" pageHeight="1100" math="0" shadow="0">
      <root>
        <mxCell id="0" />
        <mxCell id="1" parent="0" />
        <mxCell id="lqNWlTkt4Tsb4Y1-VaNx-72" value="" style="rounded=0;whiteSpace=wrap;html=1;" vertex="1" parent="1">
          <mxGeometry x="70" y="30" width="730" height="340" as="geometry" />
        </mxCell>
        <mxCell id="lqNWlTkt4Tsb4Y1-VaNx-2" value="" style="whiteSpace=wrap;html=1;aspect=fixed;" vertex="1" parent="1">
          <mxGeometry x="170" y="80" width="100" height="100" as="geometry" />
        </mxCell>
        <mxCell id="lqNWlTkt4Tsb4Y1-VaNx-3" value="" style="whiteSpace=wrap;html=1;aspect=fixed;" vertex="1" parent="1">
          <mxGeometry x="270" y="80" width="100" height="100" as="geometry" />
        </mxCell>
        <mxCell id="lqNWlTkt4Tsb4Y1-VaNx-5" value="" style="whiteSpace=wrap;html=1;aspect=fixed;" vertex="1" parent="1">
          <mxGeometry x="170" y="180" width="100" height="100" as="geometry" />
        </mxCell>
        <mxCell id="lqNWlTkt4Tsb4Y1-VaNx-6" value="" style="whiteSpace=wrap;html=1;aspect=fixed;" vertex="1" parent="1">
          <mxGeometry x="270" y="180" width="100" height="100" as="geometry" />
        </mxCell>
        <mxCell id="lqNWlTkt4Tsb4Y1-VaNx-7" value="" style="ellipse;whiteSpace=wrap;html=1;aspect=fixed;" vertex="1" parent="1">
          <mxGeometry x="260" y="170" width="20" height="20" as="geometry" />
        </mxCell>
        <mxCell id="lqNWlTkt4Tsb4Y1-VaNx-8" value="(x,y) = data" style="text;html=1;align=center;verticalAlign=middle;whiteSpace=wrap;rounded=0;" vertex="1" parent="1">
          <mxGeometry x="275" y="150" width="70" height="30" as="geometry" />
        </mxCell>
        <mxCell id="lqNWlTkt4Tsb4Y1-VaNx-9" value="" style="ellipse;whiteSpace=wrap;html=1;aspect=fixed;" vertex="1" parent="1">
          <mxGeometry x="490" y="140" width="20" height="20" as="geometry" />
        </mxCell>
        <mxCell id="lqNWlTkt4Tsb4Y1-VaNx-10" value="" style="ellipse;whiteSpace=wrap;html=1;aspect=fixed;" vertex="1" parent="1">
          <mxGeometry x="450" y="180" width="20" height="20" as="geometry" />
        </mxCell>
        <mxCell id="lqNWlTkt4Tsb4Y1-VaNx-11" value="" style="ellipse;whiteSpace=wrap;html=1;aspect=fixed;" vertex="1" parent="1">
          <mxGeometry x="490" y="220" width="20" height="20" as="geometry" />
        </mxCell>
        <mxCell id="lqNWlTkt4Tsb4Y1-VaNx-12" value="" style="ellipse;whiteSpace=wrap;html=1;aspect=fixed;" vertex="1" parent="1">
          <mxGeometry x="550" y="120" width="20" height="20" as="geometry" />
        </mxCell>
        <mxCell id="lqNWlTkt4Tsb4Y1-VaNx-13" value="" style="ellipse;whiteSpace=wrap;html=1;aspect=fixed;" vertex="1" parent="1">
          <mxGeometry x="600" y="100" width="20" height="20" as="geometry" />
        </mxCell>
        <mxCell id="lqNWlTkt4Tsb4Y1-VaNx-14" value="" style="ellipse;whiteSpace=wrap;html=1;aspect=fixed;" vertex="1" parent="1">
          <mxGeometry x="650" y="100" width="20" height="20" as="geometry" />
        </mxCell>
        <mxCell id="lqNWlTkt4Tsb4Y1-VaNx-15" value="" style="ellipse;whiteSpace=wrap;html=1;aspect=fixed;" vertex="1" parent="1">
          <mxGeometry x="680" y="130" width="20" height="20" as="geometry" />
        </mxCell>
        <mxCell id="lqNWlTkt4Tsb4Y1-VaNx-16" value="" style="ellipse;whiteSpace=wrap;html=1;aspect=fixed;" vertex="1" parent="1">
          <mxGeometry x="690" y="170" width="20" height="20" as="geometry" />
        </mxCell>
        <mxCell id="lqNWlTkt4Tsb4Y1-VaNx-17" value="" style="ellipse;whiteSpace=wrap;html=1;aspect=fixed;" vertex="1" parent="1">
          <mxGeometry x="630" y="250" width="20" height="20" as="geometry" />
        </mxCell>
        <mxCell id="lqNWlTkt4Tsb4Y1-VaNx-18" value="" style="ellipse;whiteSpace=wrap;html=1;aspect=fixed;" vertex="1" parent="1">
          <mxGeometry x="680" y="220" width="20" height="20" as="geometry" />
        </mxCell>
        <mxCell id="lqNWlTkt4Tsb4Y1-VaNx-20" value="" style="ellipse;whiteSpace=wrap;html=1;aspect=fixed;" vertex="1" parent="1">
          <mxGeometry x="570" y="260" width="20" height="20" as="geometry" />
        </mxCell>
        <mxCell id="lqNWlTkt4Tsb4Y1-VaNx-21" value="" style="ellipse;whiteSpace=wrap;html=1;aspect=fixed;" vertex="1" parent="1">
          <mxGeometry x="510" y="270" width="20" height="20" as="geometry" />
        </mxCell>
        <mxCell id="lqNWlTkt4Tsb4Y1-VaNx-23" value="" style="endArrow=none;html=1;rounded=0;exitX=1;exitY=0;exitDx=0;exitDy=0;entryX=0;entryY=1;entryDx=0;entryDy=0;" edge="1" parent="1" source="lqNWlTkt4Tsb4Y1-VaNx-10" target="lqNWlTkt4Tsb4Y1-VaNx-9">
          <mxGeometry width="50" height="50" relative="1" as="geometry">
            <mxPoint x="410" y="220" as="sourcePoint" />
            <mxPoint x="460" y="170" as="targetPoint" />
          </mxGeometry>
        </mxCell>
        <mxCell id="lqNWlTkt4Tsb4Y1-VaNx-24" value="" style="endArrow=none;html=1;rounded=0;exitX=0;exitY=0;exitDx=0;exitDy=0;entryX=1;entryY=1;entryDx=0;entryDy=0;" edge="1" parent="1" source="lqNWlTkt4Tsb4Y1-VaNx-11" target="lqNWlTkt4Tsb4Y1-VaNx-10">
          <mxGeometry width="50" height="50" relative="1" as="geometry">
            <mxPoint x="410" y="220" as="sourcePoint" />
            <mxPoint x="460" y="170" as="targetPoint" />
          </mxGeometry>
        </mxCell>
        <mxCell id="lqNWlTkt4Tsb4Y1-VaNx-25" value="" style="endArrow=none;html=1;rounded=0;exitX=0.5;exitY=0;exitDx=0;exitDy=0;entryX=1;entryY=1;entryDx=0;entryDy=0;" edge="1" parent="1" source="lqNWlTkt4Tsb4Y1-VaNx-21" target="lqNWlTkt4Tsb4Y1-VaNx-11">
          <mxGeometry width="50" height="50" relative="1" as="geometry">
            <mxPoint x="410" y="220" as="sourcePoint" />
            <mxPoint x="460" y="170" as="targetPoint" />
          </mxGeometry>
        </mxCell>
        <mxCell id="lqNWlTkt4Tsb4Y1-VaNx-26" value="" style="endArrow=none;html=1;rounded=0;exitX=1;exitY=0.5;exitDx=0;exitDy=0;entryX=-0.021;entryY=0.693;entryDx=0;entryDy=0;entryPerimeter=0;" edge="1" parent="1" source="lqNWlTkt4Tsb4Y1-VaNx-21" target="lqNWlTkt4Tsb4Y1-VaNx-20">
          <mxGeometry width="50" height="50" relative="1" as="geometry">
            <mxPoint x="410" y="220" as="sourcePoint" />
            <mxPoint x="460" y="170" as="targetPoint" />
          </mxGeometry>
        </mxCell>
        <mxCell id="lqNWlTkt4Tsb4Y1-VaNx-27" value="" style="endArrow=none;html=1;rounded=0;" edge="1" parent="1">
          <mxGeometry width="50" height="50" relative="1" as="geometry">
            <mxPoint x="550" y="134" as="sourcePoint" />
            <mxPoint x="510" y="150" as="targetPoint" />
          </mxGeometry>
        </mxCell>
        <mxCell id="lqNWlTkt4Tsb4Y1-VaNx-28" value="" style="endArrow=none;html=1;rounded=0;entryX=0;entryY=0.5;entryDx=0;entryDy=0;" edge="1" parent="1" target="lqNWlTkt4Tsb4Y1-VaNx-13">
          <mxGeometry width="50" height="50" relative="1" as="geometry">
            <mxPoint x="570" y="130" as="sourcePoint" />
            <mxPoint x="460" y="170" as="targetPoint" />
          </mxGeometry>
        </mxCell>
        <mxCell id="lqNWlTkt4Tsb4Y1-VaNx-31" value="" style="endArrow=none;html=1;rounded=0;exitX=1;exitY=0.5;exitDx=0;exitDy=0;entryX=0;entryY=0.5;entryDx=0;entryDy=0;" edge="1" parent="1" source="lqNWlTkt4Tsb4Y1-VaNx-20" target="lqNWlTkt4Tsb4Y1-VaNx-17">
          <mxGeometry width="50" height="50" relative="1" as="geometry">
            <mxPoint x="410" y="220" as="sourcePoint" />
            <mxPoint x="460" y="170" as="targetPoint" />
          </mxGeometry>
        </mxCell>
        <mxCell id="lqNWlTkt4Tsb4Y1-VaNx-32" value="" style="endArrow=none;html=1;rounded=0;entryX=0;entryY=0.5;entryDx=0;entryDy=0;exitX=1;exitY=0.5;exitDx=0;exitDy=0;" edge="1" parent="1" source="lqNWlTkt4Tsb4Y1-VaNx-13" target="lqNWlTkt4Tsb4Y1-VaNx-14">
          <mxGeometry width="50" height="50" relative="1" as="geometry">
            <mxPoint x="410" y="220" as="sourcePoint" />
            <mxPoint x="460" y="170" as="targetPoint" />
          </mxGeometry>
        </mxCell>
        <mxCell id="lqNWlTkt4Tsb4Y1-VaNx-33" value="" style="endArrow=none;html=1;rounded=0;exitX=1;exitY=0;exitDx=0;exitDy=0;entryX=0;entryY=1;entryDx=0;entryDy=0;" edge="1" parent="1" source="lqNWlTkt4Tsb4Y1-VaNx-17" target="lqNWlTkt4Tsb4Y1-VaNx-18">
          <mxGeometry width="50" height="50" relative="1" as="geometry">
            <mxPoint x="410" y="220" as="sourcePoint" />
            <mxPoint x="460" y="170" as="targetPoint" />
          </mxGeometry>
        </mxCell>
        <mxCell id="lqNWlTkt4Tsb4Y1-VaNx-34" value="" style="endArrow=none;html=1;rounded=0;entryX=1;entryY=0;entryDx=0;entryDy=0;exitX=0.5;exitY=1;exitDx=0;exitDy=0;" edge="1" parent="1" source="lqNWlTkt4Tsb4Y1-VaNx-16" target="lqNWlTkt4Tsb4Y1-VaNx-18">
          <mxGeometry width="50" height="50" relative="1" as="geometry">
            <mxPoint x="410" y="220" as="sourcePoint" />
            <mxPoint x="460" y="170" as="targetPoint" />
          </mxGeometry>
        </mxCell>
        <mxCell id="lqNWlTkt4Tsb4Y1-VaNx-35" value="" style="endArrow=none;html=1;rounded=0;exitX=0.5;exitY=0;exitDx=0;exitDy=0;entryX=0.5;entryY=1;entryDx=0;entryDy=0;" edge="1" parent="1" source="lqNWlTkt4Tsb4Y1-VaNx-16" target="lqNWlTkt4Tsb4Y1-VaNx-15">
          <mxGeometry width="50" height="50" relative="1" as="geometry">
            <mxPoint x="410" y="220" as="sourcePoint" />
            <mxPoint x="460" y="170" as="targetPoint" />
          </mxGeometry>
        </mxCell>
        <mxCell id="lqNWlTkt4Tsb4Y1-VaNx-36" value="" style="endArrow=none;html=1;rounded=0;entryX=0.5;entryY=0;entryDx=0;entryDy=0;exitX=1;exitY=1;exitDx=0;exitDy=0;" edge="1" parent="1" source="lqNWlTkt4Tsb4Y1-VaNx-14" target="lqNWlTkt4Tsb4Y1-VaNx-15">
          <mxGeometry width="50" height="50" relative="1" as="geometry">
            <mxPoint x="410" y="220" as="sourcePoint" />
            <mxPoint x="460" y="170" as="targetPoint" />
          </mxGeometry>
        </mxCell>
        <mxCell id="lqNWlTkt4Tsb4Y1-VaNx-38" value="" style="endArrow=none;dashed=1;html=1;dashPattern=1 3;strokeWidth=2;rounded=0;exitX=0.5;exitY=0;exitDx=0;exitDy=0;entryX=1;entryY=1;entryDx=0;entryDy=0;" edge="1" parent="1" source="lqNWlTkt4Tsb4Y1-VaNx-17" target="lqNWlTkt4Tsb4Y1-VaNx-12">
          <mxGeometry width="50" height="50" relative="1" as="geometry">
            <mxPoint x="616.3399999999999" y="240" as="sourcePoint" />
            <mxPoint x="570" y="139" as="targetPoint" />
          </mxGeometry>
        </mxCell>
        <mxCell id="lqNWlTkt4Tsb4Y1-VaNx-39" value="" style="endArrow=none;dashed=1;html=1;dashPattern=1 3;strokeWidth=2;rounded=0;entryX=0;entryY=1;entryDx=0;entryDy=0;exitX=1.083;exitY=0.25;exitDx=0;exitDy=0;exitPerimeter=0;" edge="1" parent="1" source="lqNWlTkt4Tsb4Y1-VaNx-11" target="lqNWlTkt4Tsb4Y1-VaNx-14">
          <mxGeometry width="50" height="50" relative="1" as="geometry">
            <mxPoint x="540" y="200" as="sourcePoint" />
            <mxPoint x="590" y="150" as="targetPoint" />
          </mxGeometry>
        </mxCell>
        <mxCell id="lqNWlTkt4Tsb4Y1-VaNx-40" value="" style="endArrow=none;dashed=1;html=1;dashPattern=1 3;strokeWidth=2;rounded=0;entryX=0.5;entryY=1;entryDx=0;entryDy=0;exitX=0.4;exitY=-0.167;exitDx=0;exitDy=0;exitPerimeter=0;" edge="1" parent="1" source="lqNWlTkt4Tsb4Y1-VaNx-20" target="lqNWlTkt4Tsb4Y1-VaNx-13">
          <mxGeometry width="50" height="50" relative="1" as="geometry">
            <mxPoint x="540" y="200" as="sourcePoint" />
            <mxPoint x="590" y="150" as="targetPoint" />
          </mxGeometry>
        </mxCell>
        <mxCell id="lqNWlTkt4Tsb4Y1-VaNx-41" value="" style="endArrow=none;dashed=1;html=1;dashPattern=1 3;strokeWidth=2;rounded=0;entryX=0;entryY=0.5;entryDx=0;entryDy=0;exitX=1;exitY=1;exitDx=0;exitDy=0;" edge="1" parent="1" source="lqNWlTkt4Tsb4Y1-VaNx-9" target="lqNWlTkt4Tsb4Y1-VaNx-16">
          <mxGeometry width="50" height="50" relative="1" as="geometry">
            <mxPoint x="540" y="200" as="sourcePoint" />
            <mxPoint x="590" y="150" as="targetPoint" />
          </mxGeometry>
        </mxCell>
        <mxCell id="lqNWlTkt4Tsb4Y1-VaNx-42" value="" style="endArrow=none;dashed=1;html=1;dashPattern=1 3;strokeWidth=2;rounded=0;exitX=1;exitY=0.5;exitDx=0;exitDy=0;entryX=-0.117;entryY=0.583;entryDx=0;entryDy=0;entryPerimeter=0;" edge="1" parent="1" source="lqNWlTkt4Tsb4Y1-VaNx-45" target="lqNWlTkt4Tsb4Y1-VaNx-15">
          <mxGeometry width="50" height="50" relative="1" as="geometry">
            <mxPoint x="540" y="200" as="sourcePoint" />
            <mxPoint x="590" y="150" as="targetPoint" />
          </mxGeometry>
        </mxCell>
        <mxCell id="lqNWlTkt4Tsb4Y1-VaNx-43" value="" style="endArrow=none;dashed=1;html=1;dashPattern=1 3;strokeWidth=2;rounded=0;exitX=1;exitY=0;exitDx=0;exitDy=0;entryX=0.5;entryY=1;entryDx=0;entryDy=0;" edge="1" parent="1" source="lqNWlTkt4Tsb4Y1-VaNx-21" target="lqNWlTkt4Tsb4Y1-VaNx-13">
          <mxGeometry width="50" height="50" relative="1" as="geometry">
            <mxPoint x="560" y="190" as="sourcePoint" />
            <mxPoint x="610" y="140" as="targetPoint" />
          </mxGeometry>
        </mxCell>
        <mxCell id="lqNWlTkt4Tsb4Y1-VaNx-44" value="" style="endArrow=none;dashed=1;html=1;dashPattern=1 3;strokeWidth=2;rounded=0;entryX=0;entryY=0;entryDx=0;entryDy=0;exitX=1;exitY=1;exitDx=0;exitDy=0;" edge="1" parent="1" source="lqNWlTkt4Tsb4Y1-VaNx-12" target="lqNWlTkt4Tsb4Y1-VaNx-18">
          <mxGeometry width="50" height="50" relative="1" as="geometry">
            <mxPoint x="560" y="190" as="sourcePoint" />
            <mxPoint x="610" y="140" as="targetPoint" />
          </mxGeometry>
        </mxCell>
        <mxCell id="lqNWlTkt4Tsb4Y1-VaNx-48" value="" style="endArrow=none;dashed=1;html=1;dashPattern=1 3;strokeWidth=2;rounded=0;exitX=1;exitY=0.5;exitDx=0;exitDy=0;entryX=-0.117;entryY=0.583;entryDx=0;entryDy=0;entryPerimeter=0;" edge="1" parent="1" source="lqNWlTkt4Tsb4Y1-VaNx-10" target="lqNWlTkt4Tsb4Y1-VaNx-45">
          <mxGeometry width="50" height="50" relative="1" as="geometry">
            <mxPoint x="470" y="190" as="sourcePoint" />
            <mxPoint x="678" y="142" as="targetPoint" />
          </mxGeometry>
        </mxCell>
        <mxCell id="lqNWlTkt4Tsb4Y1-VaNx-45" value="" style="ellipse;whiteSpace=wrap;html=1;aspect=fixed;" vertex="1" parent="1">
          <mxGeometry x="580" y="150" width="30" height="30" as="geometry" />
        </mxCell>
        <mxCell id="lqNWlTkt4Tsb4Y1-VaNx-49" value="C" style="text;html=1;align=center;verticalAlign=middle;whiteSpace=wrap;rounded=0;" vertex="1" parent="1">
          <mxGeometry x="580" y="155" width="30" height="20" as="geometry" />
        </mxCell>
        <mxCell id="lqNWlTkt4Tsb4Y1-VaNx-52" value="(x,y)¹" style="text;html=1;align=center;verticalAlign=middle;whiteSpace=wrap;rounded=0;" vertex="1" parent="1">
          <mxGeometry x="470" y="120" width="40" height="20" as="geometry" />
        </mxCell>
        <mxCell id="lqNWlTkt4Tsb4Y1-VaNx-53" value="(x,y)²" style="text;html=1;align=center;verticalAlign=middle;whiteSpace=wrap;rounded=0;" vertex="1" parent="1">
          <mxGeometry x="530" y="100" width="40" height="20" as="geometry" />
        </mxCell>
        <mxCell id="lqNWlTkt4Tsb4Y1-VaNx-54" value="(x,y)³" style="text;html=1;align=center;verticalAlign=middle;whiteSpace=wrap;rounded=0;" vertex="1" parent="1">
          <mxGeometry x="580" y="80" width="40" height="20" as="geometry" />
        </mxCell>
        <mxCell id="lqNWlTkt4Tsb4Y1-VaNx-55" value="(x,y)⁴" style="text;html=1;align=center;verticalAlign=middle;whiteSpace=wrap;rounded=0;" vertex="1" parent="1">
          <mxGeometry x="650" y="80" width="40" height="20" as="geometry" />
        </mxCell>
        <mxCell id="lqNWlTkt4Tsb4Y1-VaNx-56" value="(x,y)⁵" style="text;html=1;align=center;verticalAlign=middle;whiteSpace=wrap;rounded=0;" vertex="1" parent="1">
          <mxGeometry x="700" y="130" width="40" height="20" as="geometry" />
        </mxCell>
        <mxCell id="lqNWlTkt4Tsb4Y1-VaNx-57" value="(x,y)⁶" style="text;html=1;align=center;verticalAlign=middle;whiteSpace=wrap;rounded=0;" vertex="1" parent="1">
          <mxGeometry x="710" y="170" width="40" height="20" as="geometry" />
        </mxCell>
        <mxCell id="lqNWlTkt4Tsb4Y1-VaNx-58" value="(x,y)⁷" style="text;html=1;align=center;verticalAlign=middle;whiteSpace=wrap;rounded=0;" vertex="1" parent="1">
          <mxGeometry x="700" y="220" width="40" height="20" as="geometry" />
        </mxCell>
        <mxCell id="lqNWlTkt4Tsb4Y1-VaNx-59" value="(x,y)⁸" style="text;html=1;align=center;verticalAlign=middle;whiteSpace=wrap;rounded=0;" vertex="1" parent="1">
          <mxGeometry x="640" y="270" width="40" height="20" as="geometry" />
        </mxCell>
        <mxCell id="lqNWlTkt4Tsb4Y1-VaNx-60" value="(x,y)⁹" style="text;html=1;align=center;verticalAlign=middle;whiteSpace=wrap;rounded=0;" vertex="1" parent="1">
          <mxGeometry x="570" y="280" width="40" height="20" as="geometry" />
        </mxCell>
        <mxCell id="lqNWlTkt4Tsb4Y1-VaNx-61" value="(x,y)⁹" style="text;html=1;align=center;verticalAlign=middle;whiteSpace=wrap;rounded=0;" vertex="1" parent="1">
          <mxGeometry x="470" y="280" width="40" height="20" as="geometry" />
        </mxCell>
        <mxCell id="lqNWlTkt4Tsb4Y1-VaNx-62" value="(x,y)¹⁰" style="text;html=1;align=center;verticalAlign=middle;whiteSpace=wrap;rounded=0;" vertex="1" parent="1">
          <mxGeometry x="450" y="230" width="40" height="20" as="geometry" />
        </mxCell>
        <mxCell id="lqNWlTkt4Tsb4Y1-VaNx-63" value="(x,y)¹¹" style="text;html=1;align=center;verticalAlign=middle;whiteSpace=wrap;rounded=0;" vertex="1" parent="1">
          <mxGeometry x="410" y="180" width="40" height="20" as="geometry" />
        </mxCell>
        <mxCell id="lqNWlTkt4Tsb4Y1-VaNx-64" value="Static data" style="text;html=1;align=center;verticalAlign=middle;whiteSpace=wrap;rounded=0;" vertex="1" parent="1">
          <mxGeometry x="500" y="50" width="170" height="30" as="geometry" />
        </mxCell>
        <mxCell id="lqNWlTkt4Tsb4Y1-VaNx-65" value="Copernicus data" style="text;html=1;align=center;verticalAlign=middle;whiteSpace=wrap;rounded=0;" vertex="1" parent="1">
          <mxGeometry x="190" y="50" width="170" height="30" as="geometry" />
        </mxCell>
        <mxCell id="lqNWlTkt4Tsb4Y1-VaNx-66" value="C" style="text;html=1;align=center;verticalAlign=middle;whiteSpace=wrap;rounded=0;" vertex="1" parent="1">
          <mxGeometry x="255" y="170" width="30" height="20" as="geometry" />
        </mxCell>
        <mxCell id="lqNWlTkt4Tsb4Y1-VaNx-67" value="" style="endArrow=classic;html=1;rounded=0;" edge="1" parent="1">
          <mxGeometry width="50" height="50" relative="1" as="geometry">
            <mxPoint x="120" y="320" as="sourcePoint" />
            <mxPoint x="120" y="60" as="targetPoint" />
          </mxGeometry>
        </mxCell>
        <mxCell id="lqNWlTkt4Tsb4Y1-VaNx-68" value="" style="endArrow=classic;html=1;rounded=0;" edge="1" parent="1">
          <mxGeometry width="50" height="50" relative="1" as="geometry">
            <mxPoint x="120" y="320" as="sourcePoint" />
            <mxPoint x="760" y="320" as="targetPoint" />
          </mxGeometry>
        </mxCell>
        <mxCell id="lqNWlTkt4Tsb4Y1-VaNx-69" value="y" style="text;html=1;align=center;verticalAlign=middle;whiteSpace=wrap;rounded=0;" vertex="1" parent="1">
          <mxGeometry x="70" y="60" width="60" height="30" as="geometry" />
        </mxCell>
        <mxCell id="lqNWlTkt4Tsb4Y1-VaNx-70" value="x" style="text;html=1;align=center;verticalAlign=middle;whiteSpace=wrap;rounded=0;" vertex="1" parent="1">
          <mxGeometry x="700" y="320" width="60" height="30" as="geometry" />
        </mxCell>
      </root>
    </mxGraphModel>
  </diagram>
</mxfile>
